{"title":"The Monuments Men 2014 CAM READNFO XViD - NOBLURSHERE","uid":9648428,"size":2265026437,"categoryP":"video","categoryS":"movies","magnet":"?xt=urn:btih:c6b3e3d1d9087395d5436fbb938cdc0ad6d6fb51&amp;dn=The+Monuments+Men+2014+CAM+READNFO+XViD+-+NOBLURSHERE&amp;tr=udp%3A%2F%2Ftracker.openbittorrent.com%3A80&amp;tr=udp%3A%2F%2Fopen.demonii.com%3A1337&amp;tr=udp%3A%2F%2Ftracker.coppersurfer.tk%3A6969&amp;tr=udp%3A%2F%2Fexodus.desync.com%3A6969","seeders":1,"leechers":0,"uploader":".SceNe.","files":3,"time":1393038997,"description":"The Monuments Men 2014 CAM READNFO XViD - NOBLURSHERE\n\nsors - VOBS thxs\n\nVideo\nID: 0\nFormat: MPEG-4 Visual\nFormat profile: Advanced Simple@L5\nFormat settings, BVOP: 2\nFormat settings, QPel: No\nFormat settings, GMC: No warppoints\nFormat settings, Matrix: Default (MPEG)\nMuxing mode: Packed bitstream\nCodec ID: XVID\nCodec ID/Hint: XviD\nDuration: 1h 50mn\nBit rate: 2 516 Kbps\nWidth: 720 pixels\nHeight: 368 pixels\nDisplay aspect ratio: 1.957\nFrame rate: 29.970 fps\nColor space: YUV\nChroma subsampling: 4:2:0\nBit depth: 8 bits\nScan type: Progressive\nCompression mode: Lossy\nBits/(Pixel*Frame): 0.317\nStream size: 1.95 GiB (95%)\nWriting library: XviD 64\n\nAudio\nID: 1\nFormat: MPEG Audio\nFormat version: Version 1\nFormat profile: Layer 3\nMode: Joint stereo\nMode extension: MS Stereo\nCodec ID: 55\nCodec ID/Hint: MP3\nDuration: 1h 50mn\nBit rate mode: Constant\nBit rate: 128 Kbps\nChannel(s): 2 channels\nSampling rate: 48.0 KHz\nCompression mode: Lossy\nStream size: 102 MiB (5%)\nAlignment: Split accross interleaves\nInterleave, duration: 33 ms (1.00 video frame)\nInterleave, preload duration: 500 ms\nNotes: Made a small script ...cropped,resized,changed brightness/contrast/rgb colors aswell as used a HQsmoother\nAudio stripped,remastered and remuxed\n\nEnglish subs when needed HC'd and NO watermarks or blurs on this one\n &lt;a href=&quot;\nhttp://i.imgur.com/HVXOzYJ.png&quot; rel=&quot;nofollow&quot; target=&quot;_NEW&quot;&gt;\nhttp://i.imgur.com/HVXOzYJ.png&lt;/a&gt; &lt;a href=&quot;\nhttp://i.imgur.com/BCcIdS4.png&quot; rel=&quot;nofollow&quot; target=&quot;_NEW&quot;&gt;\nhttp://i.imgur.com/BCcIdS4.png&lt;/a&gt;\n","torrent":{"xt":"urn:btih:c6b3e3d1d9087395d5436fbb938cdc0ad6d6fb51","amp;dn":"The+Monuments+Men+2014+CAM+READNFO+XViD+-+NOBLURSHERE","amp;tr":["udp%3A%2F%2Ftracker.openbittorrent.com%3A80","udp%3A%2F%2Fopen.demonii.com%3A1337","udp%3A%2F%2Ftracker.coppersurfer.tk%3A6969","udp%3A%2F%2Fexodus.desync.com%3A6969"],"infoHash":"c6b3e3d1d9087395d5436fbb938cdc0ad6d6fb51","infoHashBuffer":{"type":"Buffer","data":[198,179,227,209,217,8,115,149,213,67,111,187,147,140,220,10,214,214,251,81]},"announce":[],"urlList":[]}}